<?xml version="1.0" encoding="utf-8"?>
<!-- Generator: Adobe Illustrator 25.0.1, SVG Export Plug-In . SVG Version: 6.00 Build 0)  -->
<svg version="1.0" id="katman_1" xmlns="http://www.w3.org/2000/svg" xmlns:xlink="http://www.w3.org/1999/xlink" x="0px" y="0px"
	 viewBox="0 0 600 400" style="enable-background:new 0 0 600 400;" xml:space="preserve">
<style type="text/css">
	.st0{fill-rule:evenodd;clip-rule:evenodd;fill:#FFE804;}
</style>
<g>
	<path class="st0" d="M135.5,142.6c4.8,0,8.7,6.8,8.7,15.3c0,0.2,0,0.4,0,0.6c2.6-3,5.6-4.6,7.9-3.6c2.3,1,3.3,4.3,2.9,8.3
		c-0.2,2.1-0.6,4.2-1.5,6.1c-0.5,1.2-1.1,2.3-1.8,3.4c34.2,7.6,58.5,35.5,58.1,84.1H189c0.3-41.2-23.7-61.6-55.2-62.2
		c-34.3-0.7-53.2,22-55.4,62.2H57.5c2.7-48.8,23.9-78.6,61.1-84.4c-0.8-1.2-1.5-2.4-2.2-3.6c-2.9-6-2.5-12.2,0.9-13.9
		c2.7-1.3,6.6,0.7,9.5,4.7c0-0.6-0.1-1.2-0.1-1.8C126.8,149.5,130.7,142.6,135.5,142.6L135.5,142.6z M343.1,180.7c5.1,0,10.2,1,15,3
		c4.5,1.9,8.6,4.6,12.1,8.1c3.4,3.5,6.2,7.6,8.1,12.1c2,4.7,3,9.8,2.9,14.9c0,5.3-1,10.3-2.9,14.9c-1.9,4.5-4.6,8.7-8.1,12.1
		c-3.5,3.5-7.6,6.2-12.1,8.1c-4.7,2-9.8,3-15,3c-10.2,0.1-19.9-3.9-27.1-11c-3.5-3.5-6.2-7.6-8.1-12.1c-2-4.7-3-9.8-2.9-14.9
		c0-5.3,1-10.3,2.9-14.9c1.9-4.5,4.6-8.7,8.1-12.1C323.2,184.6,332.9,180.6,343.1,180.7L343.1,180.7z M259.5,180.7
		c5.2,0,10.2,1,14.8,3c4.5,1.9,8.6,4.6,12,8.1c3.5,3.5,6.2,7.6,8.1,12.1c2,4.8,3,9.9,3,15.1c0,5.1-1,10.1-3,14.8
		c-1.9,4.5-4.6,8.6-8.1,12.1c-3.5,3.4-7.6,6.2-12,8.1c-4.7,2-9.7,3-14.8,2.9h-30.7v-76.2H259.5z M503,180.7c5.3,0,10.3,1,15,3
		c4.5,1.9,8.6,4.6,12,8.1c3.5,3.5,6.2,7.6,8.1,12.1c2,4.7,3,9.8,3,14.9c0,5.3-1,10.3-3,14.9c-1.9,4.5-4.6,8.7-8.1,12.1
		c-3.5,3.5-7.6,6.2-12,8.1c-4.7,2-9.8,3-15,3c-10.1,0.1-19.9-3.9-27.1-11c-3.5-3.5-6.2-7.6-8.1-12.1c-2-4.7-3-9.8-3-14.9
		c0-5.3,1-10.3,3-14.9c1.9-4.5,4.6-8.7,8.1-12.1C483.1,184.6,492.8,180.6,503,180.7L503,180.7z M419.4,180.7c5.2,0,10.2,1,14.8,3
		c4.5,1.9,8.6,4.6,12.1,8.1c3.5,3.5,6.2,7.6,8.1,12.1c2,4.8,3,9.9,3,15.1c0,5.1-1,10.1-3,14.8c-1.9,4.5-4.6,8.6-8.1,12.1
		c-3.5,3.4-7.6,6.2-12.1,8.1c-4.7,2-9.7,3-14.8,2.9h-30.7v-76.2H419.4z M116.5,215c3.1,0,5.7,2.7,5.7,6v14.7c0,3.3-2.6,6-5.7,6
		c-3.2,0-5.7-2.7-5.7-6V221C110.8,217.7,113.4,215,116.5,215L116.5,215z M150.8,215c3.2,0,5.7,2.7,5.7,6v14.7c0,3.3-2.6,6-5.7,6
		c-3.1,0-5.7-2.7-5.7-6V221C145.1,217.7,147.6,215,150.8,215L150.8,215z M419.2,197.2h-12v44.3h12c2.5,0,5-0.6,7.2-1.7
		c2.3-1.1,4.3-2.7,5.9-4.6c1.6-2,3-4.3,3.9-7c1-2.8,1.5-5.7,1.4-8.6c0-3.1-0.5-6-1.4-8.8c-0.9-2.6-2.2-5-3.9-7.1
		c-1.6-2-3.6-3.6-5.9-4.7C424.2,197.8,421.7,197.2,419.2,197.2L419.2,197.2z M342.5,197.2c-2.7,0-5.3,0.6-7.7,1.7
		c-2.3,1.1-4.4,2.7-6.2,4.6c-1.8,2-3.1,4.4-4,6.9c-1,2.8-1.5,5.7-1.5,8.7c0,3.1,0.5,6,1.5,8.7c1,2.7,2.3,5,4,6.9
		c1.7,1.9,3.8,3.5,6.2,4.6c2.4,1.1,5,1.7,7.7,1.7c2.7,0,5.3-0.6,7.6-1.7c2.4-1.1,4.4-2.7,6.2-4.6c1.7-1.9,3-4.2,4-6.9
		c1-2.8,1.5-5.7,1.5-8.7c0-3.1-0.5-6-1.5-8.7c-0.9-2.5-2.3-4.9-4-6.9c-1.7-1.9-3.8-3.5-6.2-4.6C347.7,197.8,345.1,197.2,342.5,197.2
		L342.5,197.2z M502.4,197.2c-2.7,0-5.3,0.6-7.7,1.7c-2.3,1.1-4.4,2.7-6.1,4.6c-1.8,2-3.2,4.4-4.1,6.9c-1,2.8-1.5,5.7-1.5,8.7
		c0,3.1,0.5,6,1.5,8.7c1,2.7,2.3,5,4.1,6.9c1.7,1.9,3.8,3.5,6.1,4.6c2.4,1.1,5,1.7,7.7,1.7c2.7,0,5.3-0.6,7.7-1.7
		c2.3-1.1,4.4-2.7,6.1-4.6c1.7-1.9,3.1-4.2,4-6.9c1-2.8,1.5-5.7,1.5-8.7c0-3-0.5-5.9-1.5-8.7c-0.9-2.5-2.3-4.9-4-6.9
		c-1.7-1.9-3.8-3.5-6.1-4.6C507.6,197.8,505,197.2,502.4,197.2L502.4,197.2z M259.5,196.7h-12.2v44.2h12.2c2.6,0,5-0.6,7.3-1.7
		c2.3-1.1,4.3-2.7,6-4.6c1.7-1.9,3-4.3,4-7c1-2.7,1.4-5.5,1.4-8.6c0-3.1-0.5-6-1.4-8.8c-0.9-2.6-2.2-5-4-7.1c-1.6-2-3.7-3.6-6-4.7
		C264.5,197.3,262,196.7,259.5,196.7L259.5,196.7z M259.5,196.7"/>
</g>
</svg>
