<?xml version="1.0" encoding="utf-8"?>

<svg version="1.1" id="_x32_.1_x5F_Logo-Add_x5F_SENATOR_x5F_21_x5F_Colour"
	 xmlns="http://www.w3.org/2000/svg" xmlns:xlink="http://www.w3.org/1999/xlink" x="0px" y="0px" viewBox="0 0 647.4 125.4"
	 style="enable-background:new 0 0 647.4 125.4;" xml:space="preserve">
<style type="text/css">
	.st0{fill:#00A3AD;}
	.st1{fill:#B83A4B;}
</style>
<g>
	<g id="Sign">
		<path class="st0" d="M173.7,24.7L155.8,6.8h-44.9v25.3h19.5L83.6,78.9c0.8-8.6,1.7-17.1,2.4-24.1c3-31.3-8.4-44.7-18.5-50.4
			C52.8-3.9,34.9,0.8,24.4,8.6C10.4,19.1,3.5,33.1,0,47.7l21.9,21.9c1.4-16.7,5.6-32.2,17.6-40.8c3.6-2.6,8.1-3.8,12.8-2.1
			c5.8,2.1,8,7.7,8.5,10.5c0.7,4.2,0.7,9.4,0.2,15.3c-1.6,17-4.5,44.8-5.4,55.2l17.7,17.7L173.7,24.7z"/>
	</g>
	<g id="Title">
		<g>
			<g>
				<path class="st1" d="M361.7,52.2l-24.3,54.4h13.2l4.4-9.7h25.6l4.4,9.7h13.2l-24.3-54.5h-12.2V52.2z M360.3,84.9l7.4-16.6
					l7.4,16.6H360.3z"/>
			</g>
			<polygon class="st1" points="370.8,31.6 364.2,46.6 377.4,46.6 384.1,31.6 			"/>
		</g>
		<polygon class="st1" points="437.4,52.2 391.4,52.2 391.4,64.2 408.4,64.2 408.4,106.6 420.5,106.6 420.5,64.2 437.4,64.2 		"/>
		<path class="st1" d="M466.4,62.7c9.3,0,16.8,7.6,16.8,16.8s-7.6,16.8-16.8,16.8c-9.3,0-16.8-7.6-16.8-16.8S457.1,62.7,466.4,62.7
			 M466.4,50.7c-16,0-28.8,12.9-28.8,28.8c0,16,12.9,28.8,28.8,28.8c16,0,28.8-12.9,28.8-28.8C495.3,63.6,482.4,50.7,466.4,50.7
			L466.4,50.7z"/>
		<path class="st1" d="M513.6,106.6V89.9h11.5l7.8,16.7h13.4l-9.1-19.5c5.4-3.3,9.1-9.3,9.1-16.2c0-10.4-8.5-18.9-18.9-18.9h-25.8
			v54.6L513.6,106.6L513.6,106.6z M513.6,64.2h13.8c3.8,0,6.8,3,6.8,6.8s-3,6.8-6.8,6.8h-13.8V64.2z"/>
		<polygon class="st1" points="293.6,106.6 293.6,71.9 319.8,106.6 331.9,106.6 331.9,52.2 319.8,52.2 319.8,86.9 293.6,52.2 
			281.6,52.2 281.6,106.6 		"/>
		<polygon class="st1" points="270.9,94.5 239.7,94.6 239.7,85.5 268.1,85.5 268.1,73.4 239.7,73.4 239.7,64.2 270.9,64.2 
			270.9,52.2 227.7,52.2 227.7,106.6 270.9,106.6 		"/>
		<path class="st1" d="M198.6,74.6c-1.5-0.2-5.6-1-9.4-2.2c-3-1-3.3-2.8-3.4-4c0-2.5,2.8-5.5,10.8-5.6c7.1-0.1,14.9,3.7,20.3,7.3
			V56.2c-6.2-3.1-13.3-5.4-20.3-5.4c-8.4,0-15.2,2.7-19.3,7.7c-3.1,3.9-4.3,8.9-3.2,14.1c2.1,10.5,14.3,12.6,22.3,14
			c2.6,0.5,4.9,1.2,6.8,2c0.3,0.2,2.1,1,2.2,3c0.2,2.1-1.2,3.5-2.2,3.9c-2.1,0.9-4.8,1.3-7.8,1.2c-8-0.4-14.6-3-20.2-6.3v13.5
			c5.6,2.6,12.1,4.4,19.5,4.8c0.7,0,1.3,0.1,1.9,0.1c11.7,0,20.6-6,21.9-15.2C219,90,219.1,78.2,198.6,74.6z"/>
		<path class="st1" d="M594.2,94.7c3.2-2.6,6.4-5.3,9-7.3c11.5-9.5,12.2-17.9,10.7-23.2c-2.1-7.7-9.7-12.2-15.9-13.1
			c-8.2-1.2-15.2,1.2-21.3,4.9v14.8c6.1-5.1,12.3-8.9,19.6-7.8c0.3,0.1,0.7,0.1,1,0.2c1.1,0.3,3,1.2,4,3.4c1.2,2.6,0.2,5.3-0.7,6.3
			c-1.2,1.6-2.9,3.5-5.1,5.2c-6.3,5.2-16.6,13.6-20.4,16.7v11.8H616v-12L594.2,94.7L594.2,94.7z"/>
		<path class="st1" d="M594.2,94.7c3.2-2.6,6.4-5.3,9-7.3c11.5-9.5,12.2-17.9,10.7-23.2c-2.1-7.7-9.7-12.2-15.9-13.1
			c-8.2-1.2-15.2,1.2-21.3,4.9v14.8c6.1-5.2,12.7-9,19.6-7.8c2.1,0.3,4,1.4,5,3.5c1.2,2.6,0.2,5.3-0.7,6.3c-1.2,1.6-2.9,3.5-5.1,5.2
			c-6.3,5.2-16.6,13.6-20.4,16.7v11.9H616v-12h-21.8V94.7L594.2,94.7z"/>
		<polygon class="st1" points="635.3,52.2 620.2,67.3 628.7,75.8 635.3,69.2 635.3,106.6 647.4,106.6 647.4,52.2 		"/>
	</g>
</g>
</svg>
